<svg width="56" height="56" viewBox="0 0 56 56" fill="none" xmlns="http://www.w3.org/2000/svg">
<path d="M6.52539 19.966V2.4C6.52539 2.17909 6.70448 2 6.92539 2H18.3394C18.5603 2 18.7394 2.17908 18.7394 2.4V19.966C18.7394 20.3224 18.3085 20.5008 18.0565 20.2488L12.9152 15.1075C12.759 14.9513 12.5058 14.9513 12.3495 15.1075L7.20823 20.2488C6.95625 20.5008 6.52539 20.3224 6.52539 19.966Z" fill="#010304"/>
<path d="M49.0835 53C49.0835 54.6569 47.7403 56 46.0835 56L8.8613 56C7.20445 56 5.8613 54.6569 5.8613 53L5.8613 26.129C5.8613 25.5767 6.30902 25.129 6.8613 25.129C7.41359 25.129 7.8613 25.5767 7.8613 26.129L7.8613 53C7.8613 53.5523 8.30901 54 8.8613 54L46.0835 54C46.6358 54 47.0835 53.5523 47.0835 53L47.0835 4.00003C47.0835 3.44774 46.6358 3.00003 46.0835 3.00003L25.8846 3.00002C25.3323 3.00002 24.8846 2.55231 24.8846 2.00002C24.8846 1.44774 25.3323 1.00002 25.8846 1.00002L46.0835 1.00003C47.7404 1.00003 49.0835 2.34317 49.0835 4.00003L49.0835 53Z" fill="#010304"/>
<path d="M42.3657 45.229C42.3657 45.7813 41.918 46.229 41.3657 46.229L13.2736 46.229C12.7213 46.229 12.2736 45.7813 12.2736 45.229C12.2736 44.6767 12.7213 44.229 13.2736 44.229L41.3657 44.229C41.918 44.229 42.3657 44.6767 42.3657 45.229Z" fill="#010304"/>
<path d="M41.3657 37.6792C41.918 37.6792 42.3657 37.2315 42.3657 36.6792C42.3657 36.1269 41.918 35.6792 41.3657 35.6792L13.2736 35.6792C12.7213 35.6792 12.2736 36.1269 12.2736 36.6792C12.2736 37.2315 12.7213 37.6792 13.2736 37.6792L41.3657 37.6792Z" fill="#010304"/>
<path d="M42.3657 28.1294C42.3657 28.6817 41.918 29.1294 41.3657 29.1294L13.2736 29.1294C12.7213 29.1294 12.2736 28.6817 12.2736 28.1294C12.2736 27.5771 12.7213 27.1294 13.2736 27.1294L41.3657 27.1294C41.918 27.1294 42.3657 27.5771 42.3657 28.1294Z" fill="#010304"/>
<path d="M41.3657 20.5796C41.918 20.5796 42.3657 20.1319 42.3657 19.5796C42.3657 19.0273 41.918 18.5796 41.3657 18.5796L26.3657 18.5796C25.8134 18.5796 25.3657 19.0273 25.3657 19.5796C25.3657 20.1319 25.8134 20.5796 26.3657 20.5796L41.3657 20.5796Z" fill="#010304"/>
<path d="M42.3657 11.0298C42.3657 11.5821 41.918 12.0298 41.3657 12.0298L26.3657 12.0298C25.8134 12.0298 25.3657 11.5821 25.3657 11.0298C25.3657 10.4775 25.8134 10.0298 26.3657 10.0298L41.3657 10.0298C41.918 10.0298 42.3657 10.4775 42.3657 11.0298Z" fill="#010304"/>
<path fill-rule="evenodd" clip-rule="evenodd" d="M6.92539 1C6.15219 1 5.52539 1.6268 5.52539 2.4L5.52539 19.966C5.52539 21.2133 7.0334 21.8379 7.91534 20.9559L12.6324 16.2389L17.3494 20.9559C18.2314 21.8379 19.7394 21.2133 19.7394 19.966V2.4C19.7394 1.6268 19.1126 1 18.3394 1L6.92539 1ZM7.52539 18.5175L7.52539 3L17.7394 3V18.5175L13.6223 14.4004C13.0756 13.8537 12.1892 13.8537 11.6424 14.4004L7.52539 18.5175Z" fill="#010304"/>
</svg>
