<svg width="15" height="15" viewBox="0 0 15 15" fill="none" xmlns="http://www.w3.org/2000/svg">
<path fill-rule="evenodd" clip-rule="evenodd" d="M4.97066 0.623779C3.94275 0.623779 3.09201 1.4733 3.09201 2.5012V12.4999C3.09201 13.5278 3.94274 14.3773 4.97066 14.3773H7.46697C8.4949 14.3773 9.3444 13.5278 9.3444 12.4999V9.99866C9.3444 9.16514 8.09441 9.16514 8.09441 9.99866V12.4999C8.09441 12.8569 7.82401 13.1273 7.46697 13.1273H4.97066C4.61363 13.1273 4.34322 12.8569 4.34322 12.4999V2.5012C4.34322 2.14418 4.61361 1.87376 4.97066 1.87376H7.46697C7.82402 1.87376 8.09441 2.14418 8.09441 2.5012V5.00239C8.09441 5.8359 9.3444 5.8359 9.3444 5.00239V2.5012C9.3444 1.4733 8.49488 0.623779 7.46697 0.623779H4.97066ZM1.22314 3.1152C1.13951 3.11438 1.05657 3.13034 0.979233 3.16215C0.901892 3.19396 0.83172 3.24096 0.772872 3.30038C0.714024 3.3598 0.667698 3.43042 0.636636 3.50806C0.605574 3.5857 0.590409 3.66879 0.592038 3.7524V11.2486C0.595662 11.412 0.663101 11.5674 0.779916 11.6817C0.89673 11.796 1.05363 11.8599 1.21703 11.8599C1.38043 11.8599 1.53733 11.796 1.65415 11.6817C1.77096 11.5674 1.8384 11.412 1.84203 11.2486V3.7524C1.84364 3.67022 1.82902 3.58854 1.79902 3.51201C1.76902 3.43549 1.72422 3.36564 1.66719 3.30645C1.61015 3.24726 1.54201 3.19991 1.46665 3.16709C1.39129 3.13427 1.3102 3.11664 1.22802 3.1152C1.22639 3.1152 1.22476 3.1152 1.22314 3.1152ZM11.2462 4.36763C11.2263 4.36749 11.2063 4.3683 11.1864 4.37007C11.0677 4.38164 10.9549 4.42692 10.8611 4.50056C10.7673 4.57419 10.6965 4.67312 10.6571 4.78566C10.6177 4.8982 10.6114 5.01966 10.6387 5.1357C10.6661 5.25175 10.7261 5.35755 10.8117 5.44061L12.246 6.87492H6.25361C6.23209 6.87381 6.21042 6.87381 6.18891 6.87492C5.35548 6.91815 5.42018 8.16926 6.25361 8.12613H12.2423L10.8117 9.55555C10.7515 9.61298 10.7035 9.68183 10.6703 9.75806C10.6371 9.83429 10.6195 9.91638 10.6184 9.99952C10.6173 10.0827 10.6329 10.1652 10.6641 10.2422C10.6953 10.3193 10.7416 10.3893 10.8002 10.4483C10.8588 10.5073 10.9286 10.5539 11.0055 10.5856C11.0824 10.6172 11.1648 10.6332 11.248 10.6326C11.3311 10.632 11.4133 10.6148 11.4897 10.582C11.5661 10.5493 11.6352 10.5016 11.693 10.4418L14.1942 7.94058C14.3106 7.82347 14.376 7.66505 14.376 7.49991C14.376 7.33478 14.3106 7.17636 14.1942 7.05925L11.693 4.55928C11.6351 4.49911 11.5658 4.45115 11.489 4.41824C11.4123 4.38532 11.3297 4.36811 11.2462 4.36763Z" fill="white"/>
</svg>
