<svg width="56" height="56" fill="none" xmlns="http://www.w3.org/2000/svg"><g clip-path="url(#clip0)" fill="#010304"><path d="M51.898 42.458a.996.996 0 01-1.38.542L25.546 30.278a1 1 0 01-.546-.89V1.114a.99.99 0 011.113-.983C48.12 2.966 60.977 17.988 51.898 42.458z"/><path fill-rule="evenodd" clip-rule="evenodd" d="M49.004 14.299c4.239 6.29 5.338 15.093 1.401 26.399L27 28.774V2.276c10.084 1.522 17.758 5.72 22.004 12.023zm2.894 28.16a.996.996 0 01-1.38.54L25.546 30.28a1 1 0 01-.546-.892V1.115a.99.99 0 011.113-.983C48.12 2.966 60.977 17.988 51.898 42.458zM19.318 6.881a1 1 0 10-.556-1.921C7.912 8.095-.018 18.105-.008 29.964c.012 14.36 11.662 25.99 26.022 25.978 7.792-.006 14.782-3.442 19.542-8.875a1 1 0 10-1.505-1.318c-4.396 5.018-10.846 8.187-18.04 8.193-13.254.012-24.008-10.724-24.02-23.98-.009-10.944 7.31-20.186 17.326-23.08z"/></g><defs><clipPath id="clip0"><path fill="#fff" d="M0 0h56v56H0z"/></clipPath></defs></svg>