<svg width="56" height="56" fill="none" xmlns="http://www.w3.org/2000/svg"><path fill-rule="evenodd" clip-rule="evenodd" d="M21 7h-6v8h6V7zm0 14h-6v8h6v-8zm4-14h6v8h-6V7zm6 14h-6v8h6v-8z" fill="#010304"/><path fill-rule="evenodd" clip-rule="evenodd" d="M11 0a2 2 0 00-2 2v48a1 1 0 102 0V2h24v48a1 1 0 102 0V2a2 2 0 00-2-2H11zM1.5 54a1 1 0 100 2h53a1 1 0 100-2h-53zM16 35a1 1 0 011-1h12a1 1 0 011 1v15a1 1 0 11-2 0V36H18v14a1 1 0 11-2 0V35zM15 6a1 1 0 00-1 1v8a1 1 0 001 1h6a1 1 0 001-1V7a1 1 0 00-1-1h-6zm1 8V8h4v6h-4zm-2 7a1 1 0 011-1h6a1 1 0 011 1v8a1 1 0 01-1 1h-6a1 1 0 01-1-1v-8zm2 1v6h4v-6h-4zm9-16a1 1 0 00-1 1v8a1 1 0 001 1h6a1 1 0 001-1V7a1 1 0 00-1-1h-6zm1 8V8h4v6h-4zm-2 7a1 1 0 011-1h6a1 1 0 011 1v8a1 1 0 01-1 1h-6a1 1 0 01-1-1v-8zm2 1v6h4v-6h-4zm15-9a1 1 0 100 2h4v35a1 1 0 102 0V14a1 1 0 00-1-1h-5z" fill="#010304"/></svg>