<svg width="228" height="100" xmlns="http://www.w3.org/2000/svg"><g fill="none"><path d="M20.173 72.762v26.737H.905c-.26-.83-.338-25.112-.075-26.737h19.343zm206.435-.027c.265.849.343 25.112.076 26.735h-19.34V72.735h19.264zm-87.56-30.847c.06-.37.108-.69.171-1.107h4.608v7.321c-.868.319-4.42.38-5.84.09-.023-.326-.045-.676-.075-1.027-.087-1.075-.447-1.532-1.5-1.766a5.754 5.754 0 00-1.446-.112c-.961.044-1.46.438-1.608 1.18-.2.995.097 1.679 1.056 2.056 1.657.652 3.352 1.217 5.012 1.85.948.35 1.868.773 2.752 1.264 1.744 1.01 2.69 2.55 2.676 4.597a12.95 12.95 0 01-.243 2.764 5.854 5.854 0 01-3.774 4.292c-2.764 1.068-5.555.973-8.304-.08-.623-.222-1.136-.628-1.796-1.006-.068.426-.121.777-.202 1.29h-4.671v-8.017c2.024-.09 4.06-.051 6.194-.015.047.5.073.93.127 1.356.139 1.082.669 1.764 1.703 1.946.76.11 1.531.12 2.294.032a1.34 1.34 0 001.217-1.173 1.567 1.567 0 00-.774-1.764 6.1 6.1 0 00-1.01-.411c-1.795-.626-3.603-1.217-5.389-1.874-1.983-.73-3.44-2.007-3.863-4.16a9.204 9.204 0 01.243-4.803 5.922 5.922 0 014.12-3.993c2.9-.854 5.68-.62 8.323 1.27zm-58.5-1.178c4.496.032 9.002.064 13.486.134.688.034 1.37.151 2.03.35 1.982.533 3.286 1.767 3.537 3.852a18.2 18.2 0 01.11 3.866c-.18 1.854-1.086 3.302-3.185 3.976 1.936 1.44 1.513 3.788 2.51 5.638l1.862.175c.129 1.516.034 3.031.05 4.467-.143.131-.199.243-.26.243-1.817.017-3.65.112-5.452 0-1.703-.1-2.715-1.14-3.06-2.808-.222-1.068-.414-2.143-.633-3.214-.37-1.803-.696-2.053-2.543-1.978a6.62 6.62 0 00-.742.117 7.35 7.35 0 00-.078.742v2.236l1.55.224c.107 1.491.036 3.005.041 4.489-.89.333-8.114.428-9.917.141v-4.623l1.494-.177c.243-.886.326-11.292.085-12.925l-1.584-.168v-4.623c.228-.068.462-.113.698-.134zm-8.404.073a25216.18 25216.18 0 014.605 17.762l1.545.17v4.713H68.161V58.72l1.664-.187c-.16-.774-.312-1.494-.465-2.241h-6.258l-.564 2.214 1.674.2v4.751c-3.11.073-6.236.022-9.443.037V58.73l1.547-.202L59.82 45.62l-1.608-.163v-4.674h13.932zm-16.443.073v4.587l-1.387.175c-.684 5.888-1.017 11.852-1.703 17.818H42.044c-.462-3.098-.922-6.163-1.382-9.227h-.222l-1.391 9.246H28.652c-.664-5.9-1.027-11.822-1.674-17.781l-1.392-.224v-4.667h9.151v4.584l-1.085.32.613 11.997.38.031c.817-4.136 1.637-8.272 2.467-12.457h7.57c.958 4.114 1.573 8.326 2.535 12.457l.347-.029c.205-3.976.407-7.951.614-11.983l-1.122-.316v-4.445c.88-.312 7.195-.38 8.645-.086zm47.756-.143c4.093.03 8.185.056 12.275.12.73.025 1.454.127 2.16.306 2.602.61 4.395 2.153 5.276 4.705.849 2.458 1.002 5.003.817 7.56a23.844 23.844 0 01-.693 4.426c-.866 3.253-3.12 4.995-6.411 5.46a7.686 7.686 0 01-.973.114H102.62c-.107-1.538-.036-3.078-.04-4.672l1.57-.163c.286-.873.388-10.396.147-12.975l-1.61-.11v-4.623c.25-.074.51-.124.77-.148zm-85.165-.027l4.652 17.854 1.55.173v4.684H14.365v-4.674l1.684-.197-.516-2.234H9.275l-.53 2.214 1.683.212v4.679H.983v-4.652l1.516-.244c1.148-4.219 2.314-8.499 3.503-12.876l-1.579-.18V40.74c4.592-.11 9.183-.032 13.869-.054zm92.83 4.913v13.024h2.35c1.927-.024 2.8-.664 2.985-2.604.205-2.167.19-4.357.2-6.54a8.835 8.835 0 00-.343-2.026 2.231 2.231 0 00-2.144-1.837c-.99-.08-1.995-.017-3.048-.017zm-97.927 0h-1.36c-.443 1.883-.874 3.727-1.317 5.613h3.893l-1.216-5.613zm53.795-.061l-1.355.075c-.453 1.947-.873 3.735-1.311 5.596h3.88c-.406-1.89-.798-3.69-1.214-5.671zm21.241.026l.007 5.08c1.086 0 2.083.035 3.076-.011.813-.04 1.238-.611 1.316-1.348.084-.802.084-1.61 0-2.412-.087-.822-.533-1.243-1.353-1.294-.99-.063-1.987-.015-3.046-.015zM165.477.781a38803.14 38803.14 0 019.022 32.158l2.068.093.07.698c-.912.309-10.031.404-11.86.129l-.079-.796 2.217-.158-2.406-8.786h-6.974c-.681 2.677-1.647 5.312-2.124 8.285l2.526.761v.73h-6.402a1.703 1.703 0 01-.136-.38c.001-.11.019-.221.051-.328.088-.063.149-.146.214-.15 1.767-.103 2.433-1.217 2.862-2.789 2.635-9.321 5.338-18.615 8.014-27.915.146-.503.324-.995.504-1.552h2.433zm52.708-.017c.024.297.044.55.07.905l-2.09.1c-.29.893-.35 29.771-.056 31.143l2.078.127c.02.277.034.53.059.866h-12.022l-.124-.837 2.586-.168V3.46l-.1-.027c-2.614 10.133-5.23 20.29-7.846 30.47h-1.776a82481.673 82481.673 0 00-8.03-30.854h-.15v25.69c-.015.814.03 1.627.133 2.434.197 1.304.487 1.56 1.757 1.793.197.036.397.06.654.1l.037.288.068.522c-2.19.224-4.314.097-6.409.092a2.618 2.618 0 01-.143-.464c.008-.139.032-.276.07-.41.185-.038.375-.082.565-.116 1.382-.243 1.62-.487 1.795-1.859.09-.645.14-1.295.146-1.946.01-8.798.01-17.596 0-26.392.013-.275-.012-.557-.031-.988l-2.207-.121-.085-.879h10.304l5.338 20.09.153.027L208.282.764h9.903zm8.79 27.423v5.74c-1.85.094-3.704.094-5.554 0v-5.74h5.555zm-43.245.022l-.01 5.781h-4.447c-.356 0-.711-.048-1.14-.08v-5.7h5.597zm-22.713-16.265c-1.168 3.65-2.265 7.263-3.163 11.02h6.326l-3.163-11.02z" fill="#93D3F7"/><path d="M220.927 40.557c2.52.591 4.282 2.085 5.131 4.523a17.19 17.19 0 01.835 3.65c.326 2.825.336 5.66-.275 8.457-.91 4.16-2.92 6.059-7.092 6.684a15.307 15.307 0 01-5.555-.197c-2.767-.606-4.57-2.287-5.48-4.966-.727-2.141-.773-4.367-.912-6.574.134-2.156.187-4.295.84-6.375.922-2.944 2.856-4.735 5.878-5.311a15.742 15.742 0 016.63.11zm-39.908.01c2.575.6 4.28 2.19 5.173 4.652.81 2.243.978 4.58 1.098 6.954-.202 1.683-.297 3.389-.628 5.046-.81 4.063-2.9 6.002-6.988 6.637-1.887.291-3.81.228-5.674-.187-2.715-.594-4.535-2.233-5.406-4.878-.903-2.733-1.059-5.56-.857-8.402a24.51 24.51 0 01.633-4.19c.9-3.56 3.214-5.457 6.859-5.89 1.93-.254 3.89-.167 5.79.258zm20.236-.003c3.163.743 4.75 2.691 4.881 5.942.015.324 0 .647.02.973.048 3.117-1.39 5.248-4.265 6.414-1.577.64-3.164 1.243-4.74 1.893-1.392.574-1.662 1.032-1.652 2.796 1.703.07 3.406.053 5.207 0l.219-2.348h4.924c.295.86.38 5.058.158 7.014-.8.297-15.382.4-17.29.068.076-2.433.062-4.81.244-7.182.183-2.372 1.63-3.913 3.754-4.825 1.46-.623 2.94-1.16 4.402-1.754.454-.172.89-.39 1.3-.65.875-.586 1.138-1.414.909-2.433a1.533 1.533 0 00-1.294-1.27c-.867-.192-1.854-.136-3.322.277v2.876c-1.82.105-3.535.037-5.352.04V41.59c1.309-.603 2.734-.883 4.17-1.11 2.577-.403 5.16-.517 7.727.083zm-39.963.003c2.92.69 4.401 2.255 4.817 5.214.117.924.125 1.858.022 2.783-.243 2.487-1.615 4.195-3.876 5.17-1.703.73-3.462 1.37-5.18 2.088-1.343.562-1.654 1.178-1.438 2.723h5.11c.049-.754.092-1.46.146-2.27h4.98c.334.822.404 5.689.076 7.124h-16.895c-.071-.092-.159-.156-.159-.217 0-2.306-.097-4.622.059-6.914.148-2.176 1.336-3.81 3.338-4.728 1.506-.69 3.068-1.263 4.603-1.893.456-.168.9-.365 1.331-.589 1.234-.71 1.317-1.59 1.073-2.812a1.243 1.243 0 00-1.216-1.025c-1.04-.043-2.08-.01-3.329-.01v3.096h-5.353V41.59c1.312-.6 2.733-.89 4.166-1.112 2.577-.399 5.16-.52 7.725.088zm16.18 4.533c-1.012-.02-1.703.423-2.09 1.501a5.88 5.88 0 00-.392 1.642c-.102 2.015-.226 4.034-.172 6.049.031 1.15.33 2.311.63 3.435.243.913.956 1.353 1.924 1.358 1.046 0 1.647-.367 2.054-1.37.176-.408.294-.839.353-1.28.153-1.45.26-2.897.384-4.345h-.131c.037-.767.03-1.535-.017-2.302a22.297 22.297 0 00-.558-3.209c-.243-.951-.973-1.46-1.985-1.48zm39.83-.008c-.893.015-1.577.412-1.886 1.26a9.382 9.382 0 00-.513 1.986 27.803 27.803 0 000 7.494c.116.753.326 1.489.625 2.19.33.796 1.046 1.056 1.886 1.046.8 0 1.435-.302 1.778-1.034a5.02 5.02 0 00.487-1.484c.185-1.467.282-2.959.423-4.443h-.173c0-.973.078-1.946-.024-2.92a13.854 13.854 0 00-.606-2.824c-.292-.908-1.056-1.285-1.997-1.27zM144.1 2.737a14.195 14.195 0 013.567 5.012c2.676 6.363 2.698 12.752 0 19.117a14.226 14.226 0 01-3.21 4.681c-4.165 4.061-10.219 4.105-14.418.088-2.107-2.01-3.406-4.508-4.248-7.258-.72-2.34-1.076-4.737-1.027-6.387.024-4.46.75-7.956 2.46-11.216a13.815 13.815 0 013.545-4.429c4.049-3.262 9.489-3.102 13.33.392zM13.878.17c1.275.229 2.326.903 3.336 1.67.47.36.91.822 1.53.785.842-.367.645-1.216 1.032-1.854h.827v9.49c-.1.071-.21.126-.328.162a3.131 3.131 0 01-.56-.034c-.092-.399-.192-.78-.272-1.168-.433-2.09-1.112-4.073-2.402-5.795-.827-1.098-1.846-1.917-3.211-2.265-2.214-.56-3.974.345-4.742 2.474-.64 1.786-.68 3.667-.694 5.523-.049 5.84-.049 11.679 0 17.518.007 1.297.17 2.587.487 3.845.669 2.586 2.53 3.564 5.121 2.868 1.786-.486 3.052-1.623 4.037-3.129 1.158-1.769 1.66-3.761 1.946-5.893l.893-.153v9.591l-.73.044a88.022 88.022 0 01-.73-1.603c-.475.09-.944.212-1.403.365a9.14 9.14 0 00-1.156.666c-3.163 1.876-6.326 1.704-9.465-.053-1.946-1.1-3.406-2.73-4.523-4.657C.457 24.387-.297 19.852.1 15.092a21.655 21.655 0 012.046-7.708c.973-1.995 2.229-3.773 3.995-5.138C8.423.484 10.973-.353 13.878.17zM38.21.752c1.994.026 3.956.513 5.73 1.423 4.81 2.492 5.151 8.76.62 11.735-2.014 1.321-4.304 1.827-6.647 2.153-.2.03-.399.037-.863.078 1.158.224 2.063.368 2.951.577 3.825.9 5.67 2.99 6.005 6.932.156 1.812.141 3.65.212 5.464a15.85 15.85 0 00.138 2.19c.227 1.246.845 1.604 2.083 1.336.153-.034.311-.056.543-.095l.445.973c-2.608.832-5.13 1.331-7.664.244-1.947-.83-2.75-2.553-3.08-4.519a22.584 22.584 0 01-.244-2.66c-.095-2.065-.124-4.135-.243-6.196-.127-2.234-1.117-3.26-3.36-3.596a17.23 17.23 0 00-.974-.127c-.117 0-.235.012-.35.037-.243.863-.338 14.15-.093 16.134l2.256.216.063.798h-12.21l-.107-.79 2.27-.21V1.69h-2.127L23.45.873c.185-.085.292-.158.404-.158 4.783 0 9.57-.05 14.355.037zM85.995.71c2.051.071 4.095.431 6.136.699.477.094.942.243 1.385.443 3.849 1.486 5.246 4.323 5.177 8.06a10.706 10.706 0 01-.211 1.93c-.54 2.623-2.102 4.413-4.553 5.45-2.01.85-4.136 1.11-6.29 1.195-1.011.039-2.014.007-3.128.007v14.338l2.406.16c.015.288.025.536.04.855H74.673l-.039-.842 2.175-.178V1.762l-2.126-.142-.049-.883c.487-.022.876-.053 1.27-.053 3.365 0 6.73-.088 10.09.026zm37.949.117v10.706h-.883c-.149-.99-.265-1.947-.44-2.896a9.956 9.956 0 00-1.487-3.822c-1.217-1.82-2.947-2.827-5.224-3.08v31.097l2.866.144.1.854h-13.623l-.16-.813 3.092-.185V1.71c-2.1.244-3.771 1.08-5.01 2.723-1.131 1.496-1.635 3.236-1.915 5.058-.097.638-.168 1.28-.262 1.993l-.974.132c-.063-3.633-.014-7.176-.014-10.684.939-.3 22.355-.38 23.934-.105zM59.246.68v.92l-1.893.185 5.96 14.61c1.59-3.649 3.064-7.016 4.536-10.394.326-.742.679-1.474.973-2.23.142-.444.255-.896.339-1.354-.582-.927-1.46-.545-2.161-.888L66.942.78h6.043l.103.666c-.132.1-.197.192-.256.19-1.562-.09-2.316.835-2.859 2.146-1.803 4.34-3.65 8.66-5.462 12.995a3.136 3.136 0 00-.243 1.17c-.017 4.704-.017 9.408 0 14.112.017.262.048.523.092.781l2.365.156c.02.278.034.499.056.825h-12.58v-.822l2.434-.151c.024-.419.06-.808.06-1.197 0-4.015.013-8.03 0-12.044a3.788 3.788 0 00-.242-1.414 3481.12 3481.12 0 00-6.781-16.138c-.032-.076-.08-.144-.159-.285l-1.678-.17-.021-.22-.067-.688c3.852-.026 7.633 0 11.499-.014zm78.053.34c-1.856-.029-3.163.73-3.669 2.387a11.27 11.27 0 00-.462 3.098c-.056 3.593-.022 7.197-.022 10.8v.003c0 3.605-.027 7.209.017 10.812.003.97.13 1.934.377 2.871.487 1.779 1.703 2.58 3.63 2.584 1.927.005 3.163-.761 3.674-2.523.266-.933.404-1.898.409-2.869.03-7.247.03-14.495 0-21.744a10.786 10.786 0 00-.44-2.985c-.487-1.614-1.738-2.414-3.514-2.434zm-51.934.68c-.238-.01-.48.026-.786.046-.258 1.608-.187 14.822.085 15.742h1.183c2.725-.086 4.017-1.127 4.472-3.82.408-2.563.426-5.172.053-7.74-.426-3.129-1.83-4.221-5.007-4.229zm-51.854-.04v.008c-.285 1.46-.243 12.939.058 13.944.73-.085 1.492-.158 2.246-.266 2.034-.294 3.163-1.545 3.516-3.5.425-2.279.433-4.615.024-6.896-.306-1.676-1.292-2.798-3.012-3.085-.937-.175-1.905-.146-2.832-.205z" fill="#06557D"/><path d="M71.642 72.83v.61l-2.048.156-8.244 26.088h-1.136c-1.3-3.635-2.581-7.231-3.876-10.823-.029-.08-.182-.116-.362-.226-.708 1.968-1.404 3.893-2.095 5.818-.528 1.474-1.027 2.963-1.589 4.425-.139.363-.472.655-.73.998-1.058-.64-1.088-1.664-1.392-2.482-1.155-3.136-2.221-6.304-3.309-9.465-.854-2.476-1.686-4.96-2.537-7.44-.784-2.28-1.582-4.555-2.395-6.898l-1.963-.134-.15-.53c.347-.355 22.675-.367 23.812-.039l-.156.582-2.131.1c-1.061 2.6-1.881 5.328-2.896 8.05 1.229 3.521 2.47 7.073 3.708 10.626l.331-.046 5.754-18.397c-1.167-.662-2.508.195-3.574-.73.9-.46 5.304-.57 6.978-.243zm105.312-.078a10.89 10.89 0 013.423.752c2.53.934 3.913 3.83 3.538 5.893-.43 2.37-1.757 4.121-4.059 5.02-.822.318-1.666.58-2.637.916l.815.297c1.97.713 3.58 1.89 4.438 3.842.328.821.52 1.69.567 2.574.097 1.217 0 2.433.06 3.65.027.478.139.948.332 1.387.391.898.973 1.177 1.946 1.036l1.256-.185c-.105.394-.095.699-.244.832-.237.22-.53.37-.846.436-4.107.73-6.796-1.263-7.195-5.43-.146-1.529-.243-3.06-.372-4.59-.173-2.063-1.46-3.121-3.356-3.406-1.097-.163-2.238-.029-3.442-.029l-.013 12.435c1.108.424 2.375-.243 3.431.75-1.107.455-9.951.516-11.216.18-.125-.65.326-.73.785-.75.764-.021 1.533 0 2.256 0 .34-.96.411-23.374.114-24.71-1.056-.114-2.119-.226-3.177-.36a1.703 1.703 0 01-.068-.433 3.68 3.68 0 01.768-.173c4.297 0 8.597-.034 12.896.066zm-65.818.14c-.155.383-.211.398-2.72.763-.07.488-.117.98-.139 1.474-.01 7.338-.01 14.676 0 22.012 0 .677-.05 1.355-.08 2.073l-.85.059a44257.75 44257.75 0 00-15.634-24.146l-.175.073v23.058l3.08.143.314.813c-2.72.19-5.304.068-7.993.095.078-.416.117-.633.178-.973h3.036c.059-.548.144-.973.144-1.404.011-7.256.017-14.511.017-21.767-.01-.472-.076-.948-.124-1.63h-2.964c-.07-.29-.117-.47-.207-.844 2.828-.041 5.563 0 8.419-.015l11.603 18.064V73.764c-.9-.655-2.17.28-3.024-.75.944-.428 6.022-.474 7.12-.121zm26.577-.019c.014.847-.64.623-1.09.653-.516.034-1.037 0-1.66 0-.284 2.255-.1 4.391-.133 6.518-.034 2.126-.012 4.216-.012 6.326v6.443c.004 2.095.002 4.192.002 6.27-.864.426-1.112-.115-1.358-.487-1.007-1.508-1.975-3.046-2.958-4.572-2.296-3.552-4.59-7.103-6.886-10.652-1.774-2.744-3.555-5.486-5.353-8.258-.29.85-.401 20.682-.131 23.144l3.121.153c.056.244.105.465.193.86-2.655.07-5.217.065-7.786 0a1.91 1.91 0 01-.063-.463c.04-.138.097-.27.17-.394l3.085-.151c-.073-8.292.024-16.414-.049-24.645l-3.085-.153-.102-.694h8.445l11.448 17.806c.268-.813.362-15.051.11-16.874-.945-.141-1.908-.28-2.87-.44-.026 0-.016-.222-.024-.334.872-.313 5.786-.355 6.986-.056zm21.6-.01c.118 2.351.432 4.73.176 7.137-.796.058-.769-.418-.864-.854a10.02 10.02 0 00-1.394-3.453c-.905-1.37-2.27-1.963-3.761-2.087-1.888-.158-3.8-.04-5.684-.04-.29.894-.365 10.247-.11 11.765 2.13.62 4.234-.049 5.227-1.58.243-1.123.467-2.133.698-3.182.779.202.652.747.652 1.197v9.125c0 .372-.129.64-.613.569-.173-.805-.394-1.62-.518-2.45-.278-1.815-1.431-2.365-2.781-2.523-.835-.1-1.704-.02-2.523-.02-.322.883-.38 10.492-.071 11.798.307.042.615.07.925.08 1.905 0 3.81-.038 5.715-.021 1.727.017 2.997-.774 3.713-2.273.688-1.46 1.177-2.995 1.754-4.499.044-.148.102-.294.224-.603l.63.44a1321.45 1321.45 0 01-.742 7.835h-19.85l.147-.879h2.756c.339-1.04.4-23.357.098-24.661-.95-.137-1.92-.273-2.883-.429-.032 0-.03-.22-.04-.333.84-.306 17.718-.377 19.12-.058zm-78.96-.18c1.216.025 2.467-.092 3.788.1-.316 1.052-1.044.67-1.557.73a13.91 13.91 0 01-1.652.015c-.336.915-.411 23.343-.085 24.832.764 0 1.567-.022 2.365 0 .588.022.588.051.827.857H73.163c-.27-.504-.07-.757.363-.83a9.054 9.054 0 011.092-.044c.423-.017.859-.041 1.248-.06.363-1.035.394-23.444.078-24.575-.886-.55-2.12.292-3.163-.815 1.46-.377 2.708-.17 3.922-.21a70.197 70.197 0 013.65 0zm-29.38.947h-4.38c2.176 6.368 4.298 12.567 6.482 18.966a4.38 4.38 0 00.487-.71c.487-1.32.91-2.665 1.443-3.964.45-.96.465-2.066.044-3.039-.421-.995-.716-2.041-1.085-3.058-.981-2.716-1.979-5.428-2.99-8.195zm120.192-.031v10.936c1.896.192 3.694.163 5.436-.467a3.144 3.144 0 001.752-1.574c.946-1.82.922-3.713.445-5.652a3.908 3.908 0 00-2.533-2.832c-1.62-.635-3.309-.545-5.1-.411zm-111.07.004h-4.443c.706 2.01 1.365 3.881 2.022 5.755l.282.034 2.139-5.789z" fill="#000"/></g></svg>