<svg width="56" height="57" fill="none" xmlns="http://www.w3.org/2000/svg"><path fill-rule="evenodd" clip-rule="evenodd" d="M20 55.5c2.086.79 3.621 1 6 1h3.5c10.133 0 18-7.275 18-17 0-3.728-1-7.5-2.459-10.73L39.5 19.5c-6.5 18.5-14 23-29 27.5 0 0 2.111 5.167 9.5 8.5z" fill="#010304"/><path fill-rule="evenodd" clip-rule="evenodd" d="M29.733 1.006c-.769-1.336-2.697-1.336-3.466 0l-15.33 26.627A22.014 22.014 0 008 38.617c0 1.223.12 2.419.348 3.577a1 1 0 101.962-.388 16.462 16.462 0 01-.31-3.189 20 20 0 012.67-9.986L28 2.004l7.665 13.313a1 1 0 001.733-.998L29.733 1.006zm10.54 18.306a1 1 0 00-1.673-.093l-.054-.017c-1.21 3.874-4.17 9.927-8.84 15.345-4.668 5.415-10.976 10.12-18.874 11.468l.006.035a1 1 0 00-.562 1.433C13.404 53.154 19.443 57 26.383 57h3.234C39.77 57 48 48.77 48 38.617a22.02 22.02 0 00-2.936-10.984l-4.791-8.321zM12.73 47.675C15.666 52.092 20.685 55 26.383 55h3.234C38.665 55 46 47.665 46 38.617a20 20 0 00-2.67-9.986l-3.723-6.468c-1.584 3.957-4.387 9.05-8.387 13.69-4.556 5.286-10.726 10.053-18.49 11.822z" fill="#010304"/></svg>