<svg width="56" height="56" fill="none" xmlns="http://www.w3.org/2000/svg"><path fill-rule="evenodd" clip-rule="evenodd" d="M14 19a1 1 0 011-1h5a1 1 0 011 1v30a1 1 0 01-1 1h-5a1 1 0 01-1-1V19zm11 0a1 1 0 011-1h5a1 1 0 011 1v30a1 1 0 01-1 1h-5a1 1 0 01-1-1V19zm12-1a1 1 0 00-1 1v30a1 1 0 001 1h5a1 1 0 001-1V19a1 1 0 00-1-1h-5z" fill="#010304"/><path fill-rule="evenodd" clip-rule="evenodd" d="M26.865.568a2 2 0 012.27 0l-.567.824.568-.824 25.788 17.786C56.54 19.468 55.751 22 53.79 22h-5.382a1 1 0 110-2h5.382L28 2.215 2.212 20h5.38a1 1 0 110 2h-5.38C.249 22-.54 19.468 1.076 18.354l.568.823-.568-.823L26.865.568l.565.82-.565-.82zM16 20v28h3V20h-3zm-1-2a1 1 0 00-1 1v30a1 1 0 001 1h5a1 1 0 001-1V19a1 1 0 00-1-1h-5zm12 30V20h3v28h-3zm-2-29a1 1 0 011-1h5a1 1 0 011 1v30a1 1 0 01-1 1h-5a1 1 0 01-1-1V19zm13 1v28h3V20h-3zm-1-2a1 1 0 00-1 1v30a1 1 0 001 1h5a1 1 0 001-1V19a1 1 0 00-1-1h-5zM7 54a1 1 0 100 2h44a1 1 0 100-2H7z" fill="#010304"/></svg>