<svg width="56" height="56" viewBox="0 0 56 56" fill="none" xmlns="http://www.w3.org/2000/svg">
<path fill-rule="evenodd" clip-rule="evenodd" d="M37.0894 41.7324C37.0894 41.1801 37.5371 40.7324 38.0894 40.7324L49.943 40.7324C50.8339 40.7324 51.2801 41.8096 50.6501 42.4395L38.7965 54.2932C38.1665 54.9231 37.0894 54.477 37.0894 53.5861L37.0894 41.7324Z" fill="#010304"/>
<path d="M9 0C7.34314 0 6 1.34315 6 3V43.3929C6 45.0497 7.34314 46.3929 9 46.3929H11.025C11.5773 46.3929 12.025 45.9451 12.025 45.3929C12.025 44.8406 11.5773 44.3929 11.025 44.3929H9C8.44772 44.3929 8 43.9451 8 43.3929V3C8 2.44772 8.44772 2 9 2H38.75C39.3023 2 39.75 2.44772 39.75 3V4.75846C39.75 5.31074 40.1977 5.75846 40.75 5.75846C41.3023 5.75846 41.75 5.31074 41.75 4.75846V3C41.75 1.34314 40.4069 0 38.75 0H9Z" fill="#010304"/>
<path d="M19 10C17.3431 10 16 11.3431 16 13V52.3929C16 54.0497 17.3431 55.3929 19 55.3929H33.5375C34.0898 55.3929 34.5375 54.9451 34.5375 54.3929C34.5375 53.8406 34.0898 53.3929 33.5375 53.3929H19C18.4477 53.3929 18 52.9451 18 52.3929V13C18 12.4477 18.4477 12 19 12H48.75C49.3023 12 49.75 12.4477 49.75 13V37.7737C49.75 38.326 50.1977 38.7737 50.75 38.7737C51.3023 38.7737 51.75 38.326 51.75 37.7737V13C51.75 11.3431 50.4069 10 48.75 10H19Z" fill="#010304"/>
<path fill-rule="evenodd" clip-rule="evenodd" d="M38.0894 40.7324C37.5371 40.7324 37.0894 41.1801 37.0894 41.7324V53.5861C37.0894 54.477 38.1665 54.9231 38.7965 54.2932L50.6501 42.4395C51.2801 41.8096 50.8339 40.7324 49.943 40.7324H38.0894ZM39.0894 42.7324V51.1719L47.5288 42.7324H39.0894Z" fill="#010304"/>
<path d="M22.5 18C21.9477 18 21.5 18.4477 21.5 19C21.5 19.5523 21.9477 20 22.5 20H45.5C46.0523 20 46.5 19.5523 46.5 19C46.5 18.4477 46.0523 18 45.5 18H22.5Z" fill="#010304"/>
<path d="M21.5 26C21.5 25.4477 21.9477 25 22.5 25H45.5C46.0523 25 46.5 25.4477 46.5 26C46.5 26.5523 46.0523 27 45.5 27H22.5C21.9477 27 21.5 26.5523 21.5 26Z" fill="#010304"/>
<path d="M22.5 32C21.9477 32 21.5 32.4477 21.5 33C21.5 33.5523 21.9477 34 22.5 34H45.5C46.0523 34 46.5 33.5523 46.5 33C46.5 32.4477 46.0523 32 45.5 32H22.5Z" fill="#010304"/>
<path d="M21.5 40C21.5 39.4477 21.9477 39 22.5 39H32.5C33.0523 39 33.5 39.4477 33.5 40C33.5 40.5523 33.0523 41 32.5 41H22.5C21.9477 41 21.5 40.5523 21.5 40Z" fill="#010304"/>
<path d="M22.5 46C21.9477 46 21.5 46.4477 21.5 47C21.5 47.5523 21.9477 48 22.5 48H27.5C28.0523 48 28.5 47.5523 28.5 47C28.5 46.4477 28.0523 46 27.5 46H22.5Z" fill="#010304"/>
</svg>
