<svg width="160" height="160" fill="none" xmlns="http://www.w3.org/2000/svg"><mask id="a" maskUnits="userSpaceOnUse" x="0" y="0" width="160" height="160"><circle cx="80" cy="80" r="80" fill="#C4C4C4"/></mask><g mask="url(#a)"><circle cx="80" cy="80" r="79" stroke="#010304" stroke-width="2"/><path fill="#010304" d="M0 116h160v2H0zm0-74h160v2H0zm0-22h160v2H0zm0 118h160v2H0z"/><ellipse cx="80" cy="80" rx="51" ry="79" stroke="#010304" stroke-width="2"/><path d="M100.248 49C96.891 20.779 89.089 1 80 1c-9.09 0-16.891 19.779-20.248 48m40.496 62C96.891 139.221 89.089 159 80 159c-9.09 0-16.891-19.779-20.248-48" stroke="#010304" stroke-width="2" stroke-linecap="round"/></g><path fill-rule="evenodd" clip-rule="evenodd" d="M113.611 86.33c.168-.59.248-1.201.238-1.815v-2.54a6.127 6.127 0 00-.242-1.815 3.601 3.601 0 00-.692-1.315 2.855 2.855 0 00-1.088-.795 3.725 3.725 0 00-1.447-.27 3.661 3.661 0 00-1.434.27 2.886 2.886 0 00-1.089.795 3.719 3.719 0 00-.691 1.315 6.263 6.263 0 00-.239 1.816v2.539a6.095 6.095 0 00.243 1.816c.139.481.376.929.695 1.315.295.35.67.622 1.093.795.926.36 1.954.36 2.881 0a2.78 2.78 0 001.088-.795 3.65 3.65 0 00.684-1.315zm-1.526-5.01l-3.401 2.531v-2.197a3.287 3.287 0 01.421-1.864 1.45 1.45 0 011.279-.604 1.489 1.489 0 011.224.52 2.83 2.83 0 01.477 1.614zm-3.39 3.906l3.406-2.535v2.134c0 1.66-.568 2.487-1.701 2.487-1.049 0-1.613-.695-1.705-2.086zm-4.493-.711c.01.614-.07 1.225-.238 1.816-.136.48-.369.928-.684 1.315a2.817 2.817 0 01-1.089.795 3.972 3.972 0 01-2.884 0 2.896 2.896 0 01-1.093-.795 3.727 3.727 0 01-.692-1.315 6.103 6.103 0 01-.246-1.816v-2.54a6.254 6.254 0 01.243-1.815c.136-.482.371-.93.69-1.315a2.86 2.86 0 011.09-.795 3.664 3.664 0 011.434-.27c.495-.007.987.085 1.446.27.421.175.794.448 1.089.795.32.385.555.833.692 1.315.169.59.251 1.202.242 1.816v2.539zm-5.166-.664l3.406-2.53a2.784 2.784 0 00-.481-1.614 1.486 1.486 0 00-1.22-.52 1.449 1.449 0 00-1.28.603 3.287 3.287 0 00-.425 1.864v2.197zm3.422-1.16l-3.406 2.535c.088 1.39.655 2.086 1.701 2.086 1.136 0 1.705-.826 1.705-2.487V82.69zm-36.756 3.048a6.599 6.599 0 00.243-1.808l-.02-1.359a6.658 6.658 0 00-.243-1.808 4.655 4.655 0 00-.723-1.53 3.648 3.648 0 00-1.192-1.057 3.461 3.461 0 00-1.685-.397 3.523 3.523 0 00-1.164.183 3.319 3.319 0 00-1.68 1.275c-.21.305-.384.633-.517.978a5.883 5.883 0 00-.314 1.128 6.9 6.9 0 00-.108 1.224v1.36a6.735 6.735 0 00.239 1.803c.144.545.383 1.06.707 1.522.312.438.72.8 1.192 1.057.512.273 1.085.41 1.665.397a3.393 3.393 0 002.88-1.442 4.65 4.65 0 00.72-1.526zm-1.629-4.37c.069.393.106.792.111 1.191v1.38c-.004.399-.04.797-.107 1.191a3.612 3.612 0 01-.338 1.061 2.17 2.17 0 01-.64.759 1.637 1.637 0 01-.997.29 1.589 1.589 0 01-.981-.29c-.267-.2-.48-.461-.62-.763a3.727 3.727 0 01-.326-1.06 7.897 7.897 0 01-.103-1.193v-1.37c.002-.4.036-.799.099-1.193.051-.366.16-.72.322-1.053.14-.3.354-.56.62-.759.287-.199.632-.3.981-.286a1.67 1.67 0 01.998.286c.27.198.489.457.64.755.166.332.281.687.341 1.053zm-9.464 4.455a1.407 1.407 0 00-.155-.672 1.59 1.59 0 00-.449-.505 3.01 3.01 0 00-.683-.397 9.14 9.14 0 00-.866-.302 10.586 10.586 0 01-1.24-.453 4.909 4.909 0 01-1.085-.66 3.208 3.208 0 01-.775-.913 2.384 2.384 0 01-.298-1.192 2.514 2.514 0 01.298-1.228 2.83 2.83 0 01.795-.922 3.64 3.64 0 011.156-.584 4.46 4.46 0 011.371-.207 4.23 4.23 0 011.435.239c.427.145.824.37 1.168.663a3.2 3.2 0 01.794 1.021c.198.412.3.863.298 1.32h-1.752c-.02-.253-.077-.5-.17-.736a1.718 1.718 0 00-.398-.572 1.637 1.637 0 00-.596-.373 2.27 2.27 0 00-.795-.131 2.495 2.495 0 00-.73.103 1.67 1.67 0 00-.581.298 1.371 1.371 0 00-.525 1.105 1.1 1.1 0 00.191.643c.134.19.303.353.497.481.22.144.456.263.703.354.266.099.545.19.83.274.436.13.861.291 1.272.485.385.182.743.416 1.065.695.302.262.55.58.731.938.185.38.278.797.27 1.22.01.435-.094.865-.301 1.247a2.705 2.705 0 01-.795.906 3.62 3.62 0 01-1.169.553 5.161 5.161 0 01-2.356.091 4.55 4.55 0 01-.926-.286 4.013 4.013 0 01-.822-.473 3.286 3.286 0 01-.66-.648 2.998 2.998 0 01-.608-1.831h1.757c.017.291.09.577.214.842.11.23.268.434.465.596.205.16.436.28.684.358.28.082.573.122.866.119.25.001.498-.03.739-.096a1.72 1.72 0 00.596-.282 1.293 1.293 0 00.548-1.08l-.008-.008zm-14.931-7.897H46v1.45h-2.301v7.737h2.3v1.447h-6.321v-1.447h2.245v-7.736h-2.245v-1.45zm45.178 10.635h-7.152V87.37l3.461-3.78c.294-.325.536-.611.735-.866.174-.217.332-.447.473-.687a2.63 2.63 0 00.246-.584c.049-.179.074-.363.076-.549a1.941 1.941 0 00-.115-.675 1.529 1.529 0 00-.322-.532 1.424 1.424 0 00-.505-.35 2.034 2.034 0 00-2.058.397 2.122 2.122 0 00-.45 1.43h-1.744a3.475 3.475 0 01.25-1.31c.165-.405.411-.772.724-1.077.33-.316.718-.564 1.144-.728a4.435 4.435 0 012.913-.04 2.96 2.96 0 011.037.632c.282.27.501.599.644.962.15.388.224.8.218 1.216.002.327-.052.652-.159.962a4.913 4.913 0 01-.445.925 7.918 7.918 0 01-.68.922c-.262.31-.548.628-.854.954l-2.412 2.587h4.975v1.383zm5.481.01l4.26-9.664v-.97h-7.355v1.45h5.511l-4.255 9.183h1.84zm30.875-.007h-1.752v-8.464l-2.718.994V79.56l4.371-1.613h.111l-.012 10.617zm-75.08 13.022c.198-.435.32-.9.362-1.375l-1.744.036a2.382 2.382 0 01-.56 1.454 1.787 1.787 0 01-1.38.517 1.74 1.74 0 01-.985-.263 1.832 1.832 0 01-.632-.703 3.415 3.415 0 01-.341-1.037 7.188 7.188 0 01-.108-1.272v-1.446a6.9 6.9 0 01.108-1.236c.057-.363.174-.715.345-1.04a2.03 2.03 0 01.64-.716c.294-.184.635-.277.982-.266a2.1 2.1 0 01.822.147c.222.083.42.22.576.397.162.19.286.408.366.644.092.271.15.553.175.838h1.748a4.919 4.919 0 00-.354-1.422 3.275 3.275 0 00-.735-1.085 3.18 3.18 0 00-1.104-.692 4.17 4.17 0 00-1.474-.246 3.549 3.549 0 00-1.657.37 3.513 3.513 0 00-1.193 1.009 4.45 4.45 0 00-.735 1.47A6.828 6.828 0 0039 97.478v1.43c.002.613.085 1.222.246 1.813.144.533.385 1.036.712 1.482.316.42.723.762 1.192 1.001.517.26 1.09.388 1.669.374.488.005.974-.077 1.434-.243a3.282 3.282 0 001.88-1.748zm8.853-2.86h-4.307v3.287h5.042v1.411h-6.755V92.95h6.724v1.427h-5.011v2.956h4.307v1.395zm5.05.609h1.752l1.991 4.092h1.84v-.087l-2.213-4.403c.275-.119.535-.271.774-.453a2.819 2.819 0 001.002-1.41 3.2 3.2 0 00.139-.966 3.266 3.266 0 00-.274-1.383 2.64 2.64 0 00-.771-.981 3.353 3.353 0 00-1.173-.588 5.643 5.643 0 00-1.486-.207h-3.31v10.475h1.729v-4.09zm1.59-1.391h-1.59l-.024-3.616h1.59c.277 0 .553.041.818.123.23.07.444.19.624.35.177.154.313.35.397.568.099.253.146.523.14.795.005.259-.044.516-.144.755a1.59 1.59 0 01-.397.552 1.892 1.892 0 01-.62.35 2.52 2.52 0 01-.795.123zm13.498-3.568H71.91v9.048h-1.72v-9.048h-3.18V92.95h8.126l-.012 1.427zm8.472-1.427h-6.23v1.435h2.217v7.613h-2.218v1.427h6.215v-1.427h-2.265v-7.613h2.28V92.95zm9.243 6.018h-4.394v4.462h-1.74V92.956h6.778v1.427h-5.038v3.178h4.394v1.407zm9.611-6.018h-6.227v1.435h2.214v7.613h-2.214v1.427h6.227v-1.427h-2.265v-7.613h2.265V92.95zm9.107 5.778h-4.307v3.286h5.058v1.411h-6.794V92.95h6.727v1.427h-4.991v2.956h4.307v1.395zm3.207-5.778v10.475l2.611.043a4.958 4.958 0 001.907-.353 4.165 4.165 0 001.447-.99c.407-.44.72-.959.918-1.526.226-.637.338-1.31.329-1.986v-.795a5.72 5.72 0 00-.329-1.987 4.465 4.465 0 00-.922-1.53 4.15 4.15 0 00-1.462-.99 5.236 5.236 0 00-1.94-.36h-2.559zm1.757 9.084v-7.685l.802.008c.44-.006.877.082 1.28.258.352.165.661.41.902.715.247.323.429.69.536 1.081.121.451.183.916.183 1.383v.795c.001.476-.061.95-.183 1.41a3.02 3.02 0 01-.532 1.081 2.397 2.397 0 01-.89.7 2.943 2.943 0 01-1.244.254h-.854zM49.432 72.143c.351-.256.672-.551.958-.879l-.057-6.103h-5.484v2.06h2.896v3.204a1.628 1.628 0 01-.488.44 3.03 3.03 0 01-.655.28 4.49 4.49 0 01-.751.163 6.903 6.903 0 01-.774.049 2.893 2.893 0 01-1.564-.44 3.322 3.322 0 01-1.063-1.116 5.485 5.485 0 01-.607-1.613 10 10 0 01-.202-1.915v-2.008a10.46 10.46 0 01.198-1.92 5.58 5.58 0 01.584-1.618 3.32 3.32 0 01.998-1.116c.426-.28.927-.422 1.437-.409.405-.02.81.036 1.195.163.322.123.614.313.857.558.242.253.431.552.558.879.15.374.254.765.312 1.164h2.597a6.592 6.592 0 00-.523-2.07 4.606 4.606 0 00-2.804-2.552A6.696 6.696 0 0044.827 57a5.202 5.202 0 00-2.465.567c-.716.372-1.34.9-1.824 1.547a7.239 7.239 0 00-1.142 2.302 9.846 9.846 0 00-.396 2.84v1.986c0 .961.14 1.917.413 2.838.243.833.64 1.612 1.17 2.299a5.426 5.426 0 004.433 2.096 8.39 8.39 0 001.7-.163 7.577 7.577 0 001.481-.466c.437-.187.85-.423 1.235-.703zm7.434-6.063h6.592l-.005-2.127h-6.59v-4.526h7.64V57.23H54.208v16.034h10.379v-2.153h-7.72V66.08zm14.766-8.845l1.991 6.925 2.197-6.925h3.278v16.03h-2.487v-5.506l.154-7.031-2.465 7.703h-1.39l-2.236-7.422.153 6.763v5.492H68.34V57.23l3.291.005zm21.197-.002h-9.54v2.198h3.392v11.662H83.29v2.197h9.54v-2.198h-3.472V59.431h3.472v-2.197zm14.917 16.031h-2.663l-5.22-11.033v11.033h-2.677V57.23h2.676l5.199 10.986V57.23h2.676l.009 16.034zm13.952-16.03h-9.536l.009 2.197h3.392v11.662h-3.392v2.197h9.535v-2.198h-3.467V59.431h3.459v-2.197z" fill="#010304"/></svg>